# Blender 4.2.0
# www.blender.org
o sphere
v 0.176777 0.433013 -0.176777
v 0.306186 0.250000 -0.306186
v 0.353553 0.000000 -0.353553
v 0.306186 -0.250000 -0.306186
v 0.176777 -0.433013 -0.176777
v 0.250000 0.433013 0.000000
v 0.433013 0.250000 0.000000
v 0.500000 0.000000 0.000000
v 0.433013 -0.250000 0.000000
v 0.250000 -0.433013 0.000000
v 0.176777 0.433013 0.176777
v 0.306186 0.250000 0.306186
v 0.353553 0.000000 0.353553
v 0.306186 -0.250000 0.306186
v 0.176777 -0.433013 0.176777
v 0.000000 0.433013 0.250000
v 0.000000 0.250000 0.433013
v 0.000000 0.000000 0.500000
v 0.000000 -0.250000 0.433013
v 0.000000 -0.433013 0.250000
v 0.000000 0.500000 0.000000
v -0.176777 0.433013 0.176777
v -0.306186 0.250000 0.306186
v -0.353553 0.000000 0.353553
v -0.306186 -0.250000 0.306186
v -0.176777 -0.433013 0.176777
v 0.000000 -0.500000 0.000000
v -0.250000 0.433013 0.000000
v -0.433013 0.250000 0.000000
v -0.500000 0.000000 0.000000
v -0.433013 -0.250000 0.000000
v -0.250000 -0.433013 0.000000
v -0.176777 0.433013 -0.176777
v -0.306186 0.250000 -0.306186
v -0.353553 0.000000 -0.353553
v -0.306186 -0.250000 -0.306186
v -0.176777 -0.433013 -0.176777
v 0.000000 0.433013 -0.250000
v 0.000000 0.250000 -0.433013
v 0.000000 0.000000 -0.500000
v 0.000000 -0.250000 -0.433013
v 0.000000 -0.433013 -0.250000
vn 0.1066 -0.9604 -0.2573
vn 0.3715 -0.2403 -0.8968
vn 0.2811 0.6786 -0.6786
vn 0.2811 -0.6786 -0.6786
vn 0.3715 0.2403 -0.8968
vn 0.1066 0.9604 -0.2573
vn 0.6786 -0.6786 -0.2811
vn 0.8968 0.2403 -0.3715
vn 0.2573 0.9604 -0.1066
vn 0.2573 -0.9604 -0.1066
vn 0.8968 -0.2403 -0.3715
vn 0.6786 0.6786 -0.2811
vn 0.6786 -0.6786 0.2811
vn 0.8968 0.2403 0.3715
vn 0.2573 0.9604 0.1066
vn 0.2573 -0.9604 0.1066
vn 0.8968 -0.2403 0.3715
vn 0.6786 0.6786 0.2811
vn 0.2811 -0.6786 0.6786
vn 0.3715 0.2403 0.8968
vn 0.1066 0.9604 0.2573
vn 0.1066 -0.9604 0.2573
vn 0.3715 -0.2403 0.8968
vn 0.2811 0.6786 0.6786
vn -0.2811 -0.6786 0.6786
vn -0.3715 0.2403 0.8968
vn -0.1066 0.9604 0.2573
vn -0.1066 -0.9604 0.2573
vn -0.3715 -0.2403 0.8968
vn -0.2811 0.6786 0.6786
vn -0.8968 0.2403 0.3715
vn -0.2573 0.9604 0.1066
vn -0.2573 -0.9604 0.1066
vn -0.8968 -0.2403 0.3715
vn -0.6786 0.6786 0.2811
vn -0.6786 -0.6786 0.2811
vn -0.2573 0.9604 -0.1066
vn -0.2573 -0.9604 -0.1066
vn -0.8968 -0.2403 -0.3715
vn -0.6786 0.6786 -0.2811
vn -0.6786 -0.6786 -0.2811
vn -0.8968 0.2403 -0.3715
vn -0.1066 -0.9604 -0.2573
vn -0.3715 -0.2403 -0.8968
vn -0.2811 0.6786 -0.6786
vn -0.2811 -0.6786 -0.6786
vn -0.3715 0.2403 -0.8968
vn -0.1066 0.9604 -0.2573
vt 0.687500 0.000000
vt 0.750000 0.166667
vt 0.625000 0.166667
vt 0.750000 0.500000
vt 0.625000 0.333333
vt 0.750000 0.333333
vt 0.750000 0.833333
vt 0.625000 0.666667
vt 0.750000 0.666667
vt 0.625000 0.500000
vt 0.687500 1.000000
vt 0.625000 0.833333
vt 0.500000 0.166667
vt 0.500000 0.500000
vt 0.562500 1.000000
vt 0.500000 0.833333
vt 0.562500 0.000000
vt 0.500000 0.333333
vt 0.500000 0.666667
vt 0.375000 0.166667
vt 0.375000 0.666667
vt 0.375000 0.500000
vt 0.437500 1.000000
vt 0.375000 0.833333
vt 0.437500 0.000000
vt 0.375000 0.333333
vt 0.250000 0.166667
vt 0.250000 0.500000
vt 0.312500 1.000000
vt 0.250000 0.833333
vt 0.312500 0.000000
vt 0.250000 0.333333
vt 0.250000 0.666667
vt 0.125000 0.166667
vt 0.125000 0.500000
vt 0.187500 1.000000
vt 0.125000 0.833333
vt 0.187500 0.000000
vt 0.125000 0.333333
vt 0.125000 0.666667
vt 0.000000 0.500000
vt 0.062500 1.000000
vt 0.000000 0.833333
vt 0.062500 0.000000
vt 0.000000 0.166667
vt 0.000000 0.333333
vt 0.000000 0.666667
vt 1.000000 0.833333
vt 0.937500 1.000000
vt 0.875000 0.833333
vt 0.937500 0.000000
vt 1.000000 0.166667
vt 0.875000 0.166667
vt 1.000000 0.500000
vt 0.875000 0.333333
vt 1.000000 0.333333
vt 0.875000 0.666667
vt 1.000000 0.666667
vt 0.875000 0.500000
vt 0.812500 0.000000
vt 0.812500 1.000000
s 0
f 27/1/1 42/2/1 5/3/1
f 40/4/2 4/5/2 41/6/2
f 38/7/3 2/8/3 39/9/3
f 41/6/4 5/3/4 42/2/4
f 39/9/5 3/10/5 40/4/5
f 38/7/6 21/11/6 1/12/6
f 4/5/7 10/13/7 5/3/7
f 2/8/8 8/14/8 3/10/8
f 1/12/9 21/15/9 6/16/9
f 27/17/10 5/3/10 10/13/10
f 3/10/11 9/18/11 4/5/11
f 1/12/12 7/19/12 2/8/12
f 9/18/13 15/20/13 10/13/13
f 8/14/14 12/21/14 13/22/14
f 6/16/15 21/23/15 11/24/15
f 27/25/16 10/13/16 15/20/16
f 9/18/17 13/22/17 14/26/17
f 6/16/18 12/21/18 7/19/18
f 14/26/19 20/27/19 15/20/19
f 12/21/20 18/28/20 13/22/20
f 11/24/21 21/29/21 16/30/21
f 27/31/22 15/20/22 20/27/22
f 13/22/23 19/32/23 14/26/23
f 11/24/24 17/33/24 12/21/24
f 19/32/25 26/34/25 20/27/25
f 17/33/26 24/35/26 18/28/26
f 16/30/27 21/36/27 22/37/27
f 27/38/28 20/27/28 26/34/28
f 18/28/29 25/39/29 19/32/29
f 16/30/30 23/40/30 17/33/30
f 23/40/31 30/41/31 24/35/31
f 22/37/32 21/42/32 28/43/32
f 27/44/33 26/34/33 32/45/33
f 24/35/34 31/46/34 25/39/34
f 22/37/35 29/47/35 23/40/35
f 25/39/36 32/45/36 26/34/36
f 28/48/37 21/49/37 33/50/37
f 27/51/38 32/52/38 37/53/38
f 30/54/39 36/55/39 31/56/39
f 28/48/40 34/57/40 29/58/40
f 31/56/41 37/53/41 32/52/41
f 29/58/42 35/59/42 30/54/42
f 27/60/43 37/53/43 42/2/43
f 35/59/44 41/6/44 36/55/44
f 33/50/45 39/9/45 34/57/45
f 36/55/46 42/2/46 37/53/46
f 34/57/47 40/4/47 35/59/47
f 33/50/48 21/61/48 38/7/48
f 40/4/2 3/10/2 4/5/2
f 38/7/3 1/12/3 2/8/3
f 41/6/4 4/5/4 5/3/4
f 39/9/5 2/8/5 3/10/5
f 4/5/7 9/18/7 10/13/7
f 2/8/8 7/19/8 8/14/8
f 3/10/11 8/14/11 9/18/11
f 1/12/12 6/16/12 7/19/12
f 9/18/13 14/26/13 15/20/13
f 8/14/14 7/19/14 12/21/14
f 9/18/17 8/14/17 13/22/17
f 6/16/18 11/24/18 12/21/18
f 14/26/19 19/32/19 20/27/19
f 12/21/20 17/33/20 18/28/20
f 13/22/23 18/28/23 19/32/23
f 11/24/24 16/30/24 17/33/24
f 19/32/25 25/39/25 26/34/25
f 17/33/26 23/40/26 24/35/26
f 18/28/29 24/35/29 25/39/29
f 16/30/30 22/37/30 23/40/30
f 23/40/31 29/47/31 30/41/31
f 24/35/34 30/41/34 31/46/34
f 22/37/35 28/43/35 29/47/35
f 25/39/36 31/46/36 32/45/36
f 30/54/39 35/59/39 36/55/39
f 28/48/40 33/50/40 34/57/40
f 31/56/41 36/55/41 37/53/41
f 29/58/42 34/57/42 35/59/42
f 35/59/44 40/4/44 41/6/44
f 33/50/45 38/7/45 39/9/45
f 36/55/46 41/6/46 42/2/46
f 34/57/47 39/9/47 40/4/47
