# Blender 4.2.0
# www.blender.org
o stairs
v -0.500000 -0.500000 0.500000
v 0.500000 -0.500000 0.500000
v 0.500000 -0.500000 0.000000
v -0.500000 -0.500000 0.000000
v -0.500000 0.500000 0.500000
v 0.500000 0.500000 0.500000
v -0.500000 0.000000 0.000000
v 0.500000 0.000000 0.000000
v 0.500000 0.000000 -0.500000
v -0.500000 0.000000 -0.500000
v -0.500000 0.500000 0.000000
v 0.500000 0.500000 0.000000
v 0.500000 0.500000 -0.500000
v -0.500000 0.500000 -0.500000
vn -0.0000 1.0000 -0.0000
vn -0.0000 -0.0000 1.0000
vn -0.0000 -0.0000 -1.0000
vn 1.0000 -0.0000 -0.0000
s 0
f 2//1 4//1 1//1
f 6//1 11//1 5//1
f 2//2 5//2 1//2
f 4//3 12//3 3//3
f 4//4 5//4 1//4
f 3//4 6//4 2//4
f 8//1 10//1 7//1
f 12//1 14//1 11//1
f 8//2 11//2 7//2
f 10//3 13//3 9//3
f 10//4 11//4 7//4
f 9//4 12//4 8//4
f 2//1 3//1 4//1
f 6//1 12//1 11//1
f 2//2 6//2 5//2
f 4//3 11//3 12//3
f 4//4 11//4 5//4
f 3//4 12//4 6//4
f 8//1 9//1 10//1
f 12//1 13//1 14//1
f 8//2 12//2 11//2
f 10//3 14//3 13//3
f 10//4 14//4 11//4
f 9//4 13//4 12//4
