# Blender 4.2.0
# www.blender.org
o wedge
v -0.500000 -0.500000 0.500000
v 0.500000 -0.500000 0.500000
v 0.500000 -0.500000 -0.500000
v -0.500000 -0.500000 -0.500000
v -0.500000 0.500000 0.500000
v 0.500000 0.500000 0.500000
vn -0.0000 -0.0000 1.0000
vn -0.0000 1.0000 -0.0000
vn -0.0000 -0.0000 -1.0000
vn -0.0000 -0.7071 0.7071
vn 1.0000 -0.0000 -0.0000
s 0
f 2//1 5//1 1//1
f 2//2 4//2 1//2
f 6//3 1//3 5//3
f 3//4 5//4 4//4
f 1//5 4//5 5//5
f 2//5 3//5 6//5
f 2//1 6//1 5//1
f 2//2 3//2 4//2
f 6//3 2//3 1//3
f 3//4 6//4 5//4
